<?xml version="1.0" encoding="UTF-8" standalone="no"?>
<!DOCTYPE svg PUBLIC "-//W3C//DTD SVG 1.1//EN" "http://www.w3.org/Graphics/SVG/1.1/DTD/svg11.dtd">
<svg width="100%" height="100%" viewBox="0 0 256 256" version="1.1" xmlns="http://www.w3.org/2000/svg" xmlns:xlink="http://www.w3.org/1999/xlink" xml:space="preserve" xmlns:serif="http://www.serif.com/" style="fill-rule:evenodd;clip-rule:evenodd;stroke-linejoin:round;stroke-miterlimit:2;">
    <g transform="matrix(13.334,0,0,13.334,-1264.77,-1553.59)">
        <g transform="matrix(12,0,0,12,101.364,127.058)">
        </g>
        <text x="96.559px" y="127.058px" style="font-family:'EmberizaSans-12-W4', 'Emberiza Sans 12';font-size:12px;">t</text>
    </g>
    <path d="M297.141,260.109L36.228,266.097C36.228,266.097 57.659,229.876 57.659,221.022C57.659,212.169 47.73,215.033 47.559,207.818C47.389,200.603 72.318,178.945 79.398,169.904C86.477,160.862 87.166,150.623 98.845,138.549C110.523,126.475 138.247,103.413 185.447,103.413C232.647,103.413 279.47,133.772 279.47,133.772L297.141,260.109Z" style="fill:white;"/>
    <g transform="matrix(1,0,0,1,1.22843,-61.0705)">
        <path d="M209.313,272.569C212.224,274.595 217.019,275.258 221.323,274.535C227.155,273.556 231.964,270.187 229.907,264.052C224.113,254.241 206.778,253.975 197.929,246.08C194.274,242.808 193.585,243.696 193.566,245.996C193.547,248.297 194.357,251.99 194.089,254.058C191.829,257.168 184.815,247.281 180.981,253.895C182.218,249.556 178.574,249.222 175.663,250.414C172.753,251.605 170.668,254.349 175.074,256.923C175.859,257.819 177.229,255.642 179.086,256.063C177.646,259.223 175.125,258.838 173.178,257.096C171.231,255.355 169.754,252.301 169.983,250.105C167.107,253.888 164.36,253.348 163.369,251.41C162.379,249.472 163.06,246.001 166.898,243.969C167.98,239.097 179.961,242.333 183.941,239.089C178.698,235.974 169.134,234.624 163.09,239.058C161.885,241.308 155.237,241.443 153.069,244.081C150.333,246.118 140.785,244.159 138.916,241.066C137.593,239.48 134.357,236.913 130.92,235.759C127.483,234.604 123.995,234.88 122.067,239.083C111.805,244.835 119.578,251.441 111.03,252.102C106.563,254.295 100.41,257.611 91.993,257.106C85.044,256.657 76.289,255.959 73.073,259.078C71.443,260.59 68.301,263.49 66.504,266.322C64.707,269.154 64.237,271.749 68.056,272.909C72.21,276.419 64.571,291.178 72.078,296.927C79.064,305.14 59.541,310.141 70.107,320L68.966,320.101C56.084,311.302 82.256,299.796 65.935,295.085C63.064,291.893 69.651,281.24 62.007,280.106C56.825,281.582 59.292,293.252 54.104,295.977C54.772,300.101 51.84,303.905 50.104,306.976C51.603,313.721 44.044,314.558 43.047,320.096C42.129,320.096 37.302,319.958 34.902,319.958C35.934,315.146 38.289,309.885 42.9,309.963C44.892,299.014 55.905,287.053 50.948,276.093C41.049,274.172 41.023,268.429 44.006,262.734C46.989,257.039 52.962,251.219 54.929,248.92C64.926,240.825 73.348,230.16 84.065,223.915C86.784,232.765 75,239.821 68.094,244.05C63.704,254.488 47.346,258.618 50.042,271.902C60.525,270.466 63.841,255.115 74.953,252.905C83.173,246.724 100.278,241.502 109.941,244.089C106.023,236.718 88.749,233.491 94.896,222.978C99.141,201.404 116.252,191.962 135.932,186.918C145.031,175.491 166.562,175.49 181.993,177.894C198.259,173.215 205.474,173.593 221.96,175.901C226.388,171.454 221.648,169.827 214.656,169.022C207.665,168.218 198.459,168.442 193.996,168.107C178.55,168.054 163.198,169.026 150.03,170.102C139.513,175.317 128.812,181.259 119.058,186.09C111.56,191.618 101.695,195.766 97.103,203.027C96.267,206.429 92.811,211.497 90.058,213.905C87.306,216.312 85.056,215.989 86.902,208.957C90.514,200.901 97.371,194.838 102.931,189.919C108.175,185.538 116.013,182.37 120.953,178.904C126.717,176.757 130.916,171.501 136.971,170.897C141.669,168.716 145.861,164.387 150.972,163.897C155.99,161.691 167.287,164.168 170.971,161.897C248.386,158.284 286.468,198.531 320.107,241C320.107,246.954 320.1,255.813 320.1,263.037C316.156,273.301 304.119,285.721 289.951,278.095C281.865,274.078 283.118,276.199 285.571,280.588C288.024,284.976 291.776,291.443 289.052,295.907C291.39,296.44 291.432,298.176 290.597,299.84C289.762,301.504 288.084,303.251 287.087,304.062C284.941,307.517 281.341,312.354 282.107,320L278.895,319.982C279.747,310.291 285.294,293.078 278.961,282.099C268.652,282.906 246.102,280.998 239.055,289.091C235.046,290.683 225.436,289.586 220.059,291.089C216.285,294.674 205.991,294.242 205.068,301.918C210.32,304.723 216.648,309.176 215.107,320L212.904,319.953C215.461,309.496 195.6,304.212 206.939,294.912C218.595,287.575 240.313,288.352 251.97,279.898C256.86,279.898 264.824,279.894 271.014,279.894C273.879,280.647 277.31,279.374 279.106,277.281C280.903,275.188 280.975,272.457 276.925,270.075C273.747,266.244 271.651,258.724 262.014,260.106C256.101,260.851 250.623,264.785 245.029,267.103C241.777,267.667 236.37,269.272 234.043,272.098C229.61,272.555 225.915,276.786 220.038,277.099C215.521,280.297 212.073,276.045 209.313,272.569ZM209.313,272.569C208.279,271.85 207.483,270.959 207.03,269.898C207.737,270.577 208.495,271.539 209.313,272.569ZM48.897,304.971C50.644,298.597 57.518,291.75 54.988,285.106C51.567,289.589 48.396,300.146 47.086,307.937C47.353,308.259 47.998,308.151 48.583,307.651C49.167,307.151 49.5,306.292 48.897,304.971ZM58.95,250.906C65.943,243.518 75.142,237.49 80.977,230.104C72.606,233.592 61.848,245.223 58.107,252L58.95,250.906ZM138.411,293.757C138.217,294.77 138.103,295.873 138.077,297.074C136.163,298.615 130.793,299.886 131.107,305.005C130.843,310.342 127.041,315.02 125.045,319.903C125.156,319.903 121.39,319.904 119.953,319.904C123.615,316.341 128.795,312.864 127.894,306.008C127.663,302.855 127.961,299.719 129.037,297.592C130.113,295.465 132.082,294.234 135.009,294.894C136.659,294.818 137.732,294.39 138.411,293.757ZM139.461,290.462C139.362,288.525 138.603,286.556 138.911,285.941C147.691,273.369 166.258,286.637 173.983,280.895C189.614,285.436 199.76,273.338 207.07,270.081C198.032,297.562 148.429,271.519 139.461,290.462ZM138.411,293.757C138.646,292.531 139,291.437 139.461,290.462C139.524,291.692 139.322,292.909 138.411,293.757ZM99.995,286.107C96.545,286.558 92.73,285.139 91.725,283.837C90.72,282.536 92.515,281.139 99.986,281.894C104.835,280.044 108.28,281.91 108.731,283.766C109.182,285.622 106.649,287.679 99.995,286.107ZM124.938,279.087C124.493,278.598 124.643,276.561 125.222,275.23C125.801,273.898 126.923,273.091 128.051,274.907C128.563,275.024 128.934,276.398 128.592,277.493C128.25,278.588 127.08,279.584 124.938,279.087Z" style="fill:rgb(106,106,106);"/>
    </g>
    <g transform="matrix(1,0,0,1,1.22843,-61.0705)">
        <path d="M68.489,309.496C70.109,301.892 73.653,296.616 66,291C65.402,268.882 54.664,288.426 54,298C48.685,304.93 51.536,323.002 35,320C39.476,310.086 47.398,309.748 49,296C55.741,284.411 52.63,274.848 42,270C42.765,258.52 52.768,253.302 60,247C64.066,239.749 73.075,231.103 81,229C84.701,234.1 68.54,240.617 66,248C60.49,253.808 47.481,258.454 51,272C62.483,275.064 56.005,269.021 67,259C75.067,254.822 81.035,245.569 95,246C108.097,243.924 117.717,249.046 106,237C90.938,239.058 93.381,220.822 98,212C103.633,205.387 108.993,195.528 120,193C127.403,188.158 140.936,186.47 147,179C155.187,175.644 171.154,177.65 182,177C193.76,175.923 205.548,172.327 218,176C241.32,180.283 226.078,170.676 214,169L173,169C158.423,167.755 148.189,170.857 140,176C131.617,179.862 119.974,183.44 113,190C106.337,195.582 94.859,199.325 92,210C81.49,223.904 89.323,196.841 97,196C102.239,187.907 112.221,184.553 120,179C128.1,174.855 138.617,170.152 147,165C157.74,163.495 170.823,161.358 184,161C194.85,158.888 208.023,163.37 220,164C230.279,167.053 236.619,174.049 247,177C254.307,181.938 264.845,186.621 274,191C278.707,198.538 287.489,204.976 296,210C300.464,217.781 305.075,228.391 314,233C323.338,243.854 320.389,251.338 306,244C301.326,235.996 296.857,225.745 296,223C288.047,222.439 275.349,217.552 272,208C274.874,204.58 270.833,190.314 254,195C240.476,189.189 246.136,187.184 240,179C210.79,175.205 249.769,184.083 239,185C229.199,182.556 216.948,179.587 204,179C193.564,179.581 180.527,185.162 168,182C154.092,181.682 147.197,184.048 139,191C129.967,194.213 118.758,198.224 111,204C105.2,206.232 94.931,224.695 105,227C105.108,239.578 107.504,224.765 117,238C116.63,241.169 116.584,242.945 116.821,243.763C117.615,242.191 119.066,240.538 121.908,238.945C123.791,234.842 127.375,234.42 130.742,235.477C131.476,235.523 132.23,235.688 133,236C133.042,236.158 133.087,236.313 133.138,236.465C135.748,237.783 138.047,239.692 139.09,240.943C139.628,241.834 140.777,242.628 142.206,243.259C145.712,244.064 149.74,244.078 153.469,243.384C156.036,241.26 161.812,241.006 162.928,238.921C165.179,237.27 167.957,236.44 170.829,236.209C179.572,234.539 191.384,235.583 192,243C192.711,243.288 193.412,243.607 194.105,243.949C194.792,243.609 196.021,244.085 198.071,245.92C198.494,246.297 198.936,246.657 199.395,247.001C200.285,247.57 201.175,248.156 202.073,248.747C211.404,254.08 225.089,255.479 230.101,263.965C230.178,264.196 230.246,264.423 230.304,264.647C233.633,266.275 237.37,266.026 244,261C242.829,251.671 269.897,255.545 274,260C291.088,258.976 282.113,272.744 297,274C308.518,277.443 312.837,263.142 318,256C321.952,265.541 313.781,276.629 305,279C299.681,279.804 278.935,279.267 277,272C277.158,262.561 260.218,254.265 252,264C241.898,266.143 232.493,271.959 223,276C217.363,277.153 213.663,275.269 210.642,273.562C210.186,273.344 209.756,273.103 209.36,272.836C207.702,271.913 206.212,271.208 204.643,271.356C203.109,272.295 201.461,273.476 199.679,274.709C199.145,275.358 198.587,276.118 198,277C191.735,285.011 179.424,282.474 167,285C160.591,282.598 133.434,279.306 143,294C132.715,295.96 129.599,308.065 126,318C123.552,319.013 121.636,319.65 120.154,319.985C120.114,320.024 120.075,320.062 120.035,320.101C119.89,320.101 119.745,320.101 119.599,320.101C118.272,320.352 117.34,320.329 116.717,320.101C113.104,320.101 109.393,320.101 105.62,320.1C103.979,320.374 101.555,320.406 98.055,320.099C97.366,320.099 96.676,320.099 95.985,320.099C89.312,320.732 86.232,320.649 85.202,320.098C80.087,320.097 74.976,320.097 69.955,320.097C69.177,319.371 68.562,318.672 68.088,317.996C68.058,317.998 68.029,318 68,318C67.994,317.947 67.988,317.894 67.982,317.841C65.836,314.656 66.806,311.99 68.489,309.496ZM114.469,250.796C107.183,247.969 87.637,253.142 82,256C81.412,256.198 80.851,256.403 80.315,256.615C83.99,256.357 88.281,256.653 92.007,256.894C100.423,257.398 106.507,254.089 110.973,251.897C112.736,251.76 113.8,251.374 114.469,250.796ZM163.548,251.292C166.653,246.221 181.973,242.596 185,246C181.883,236.815 165.454,241.652 163.217,250.291C163.283,250.65 163.395,250.987 163.548,251.292ZM310,237C310.495,234.958 301.512,227.158 305,235C304.507,238.354 311.862,244.525 310,237ZM291,219C292.212,209.05 278.75,210.548 276,210C280.223,212.897 289.11,219.296 291,219ZM181,251C179.964,247.793 170.366,252.034 174,255C175.33,258.501 183.676,253.008 181,251ZM229.942,319.988C225.121,320.559 219.805,320.681 214,320C214.2,308.803 200.342,308.008 205,295C214.567,292.568 221.382,287.381 234,288C242.54,284.541 248.022,278.02 262,280C272.976,282.568 286.676,272.116 288,287C286.575,296.772 294.791,300.497 284,309C284.998,316.551 282.495,318.868 279.121,319.348C279.094,319.602 279.069,319.851 279.048,320.095C263.425,320.095 246.618,320.022 229.942,319.988ZM305,320C310.77,316.288 317.425,310.243 320,302C321.75,313.232 320.806,324.988 305,320Z" style="fill:rgb(30,30,30);"/>
    </g>
</svg>
