<?xml version="1.0" encoding="UTF-8" standalone="no"?>
<!DOCTYPE svg PUBLIC "-//W3C//DTD SVG 1.1//EN" "http://www.w3.org/Graphics/SVG/1.1/DTD/svg11.dtd">
<svg width="100%" height="100%" viewBox="0 0 1067 1067" version="1.1" xmlns="http://www.w3.org/2000/svg" xmlns:xlink="http://www.w3.org/1999/xlink" xml:space="preserve" xmlns:serif="http://www.serif.com/" style="fill-rule:evenodd;clip-rule:evenodd;stroke-linejoin:round;stroke-miterlimit:2;">
    <circle cx="533.333" cy="533.333" r="533.333" style="fill:#fffeff;"/>
    <clipPath id="_clip1">
        <circle cx="533.333" cy="533.333" r="533.333"/>
    </clipPath>
    <g clip-path="url(#_clip1)">
        <g>
            <path d="M713.185,990.274C712.502,979.194 699.57,980.065 689.709,981.474C672.8,983.89 648.092,991.331 631.084,985.662C621.281,982.394 616.549,978.962 605.122,978.962C595.399,978.962 582.929,987.197 573.297,983.987C523.64,967.434 467.309,971.667 415.848,961.374C400.509,958.307 383.9,971.543 368.11,968.912C354.01,966.562 343.17,953.265 329.586,951.324C309.342,948.432 289.112,955.067 269.286,947.137C247.292,938.339 270.396,895.228 275.986,882.65C295.637,838.434 343.275,739.521 324.561,690.863C306.082,642.82 202.083,564.59 154.549,543.464C140.884,537.391 92.766,504.365 99.274,484.839C101.476,478.235 172.828,456.565 181.349,453.014C266.956,417.345 355.199,405.979 446.835,400.252C654.99,387.243 890.19,298.102 1084.17,414.49C1188.05,476.816 1249.51,571.956 1294.38,681.651C1310.69,721.518 1329.67,773.276 1319.51,817.325C1311.75,850.949 1286.81,872.654 1268.42,900.237C1248.35,930.34 1222.35,958.445 1189.69,974.774C1176.33,981.457 1128.19,996.957 1113.48,999.899C1100.09,1002.58 1088.35,989.85 1074.96,991.524C1062.46,993.086 1046.96,995.174 1034.76,998.224C1028.01,999.91 1025.08,991.952 1018.84,993.199C1008.71,995.227 998.65,1004.57 987.857,1002.41C977.184,1000.28 968.947,990.737 956.87,989.012C892.545,979.822 824.215,972.485 758.383,979.799C742.703,981.542 726.935,978.449 711.484,982.312C709.904,982.707 713.185,990.274 713.185,990.274Z" style="fill:#f4f3f0;"/>
            <path d="M432.322,379.85C437.95,377.522 447.98,354.128 452.147,349.962C472.073,330.035 504.888,305.913 530.655,293.029C555.665,280.525 564.919,264.08 590.164,251.458C603.423,244.828 597.29,257.645 612.366,247.414C618.8,243.047 644.479,229.611 669.45,222.426C682.049,218.801 673.533,228.553 681.074,225.063C694.804,218.709 717.4,216.718 737.68,209.741C746.981,206.541 779.369,211.822 788.979,210.221C818.696,205.268 862.877,194.198 890.598,208.059C896.351,210.935 906.51,208.836 910.057,212.383C913.352,215.678 924.824,214.075 928.227,217.478C933.016,222.267 941.569,218.251 947.395,221.164C963.734,229.334 980.297,222.235 995.168,229.67C997.712,230.942 1012.55,239.246 1013.75,241.869C1015.49,245.687 1040.05,246.465 1042.67,249.089C1053.39,259.813 1063.6,255.08 1074.43,265.908C1077.32,268.794 1076.79,274.114 1082,276.719C1092.88,282.161 1110.09,275.816 1122,277.8C1141.29,281.015 1136.29,307.305 1154.96,311.973C1184.93,319.466 1197.33,359.463 1220.32,376.702C1237.9,389.891 1261.58,394.843 1279.78,406.972C1301.18,421.238 1315.23,446.532 1335.99,462.105C1388.4,501.413 1424.92,551.891 1440.85,615.614C1442.69,622.982 1450.9,630.152 1454.9,636.154C1464.91,651.159 1475.29,671.45 1481.93,688.044C1491.4,711.724 1495.29,739.309 1501.39,763.718C1506.29,783.295 1529.39,853.417 1522.48,874.158C1521.27,877.787 1518.45,878.036 1515.99,881.725C1510.13,890.51 1501.99,895.72 1496.53,901.184C1492.33,905.389 1474.14,891.069 1470.59,889.293C1452.99,880.493 1452.13,888.507 1429.24,899.953C1415.99,906.58 1415.75,920.093 1410.98,929.642C1406.47,938.662 1389.92,927.467 1384.65,937.994C1382.65,942.002 1365.18,938.004 1360.87,942.318C1351.49,951.702 1339.77,953.949 1328.44,959.615C1323.02,962.325 1321.88,971.17 1314.39,973.668C1305.61,976.593 1278.49,968.27 1274.31,972.448C1256.6,990.162 1231.66,961.215 1210.4,961.215C1184.31,961.215 1178.46,963.236 1155.27,949.324C1148.51,945.267 1127.55,908.779 1121.94,903.173C1116.65,897.882 1115.26,886.827 1108.97,882.633C1102.29,878.182 1080.49,877.566 1076.54,869.661C1069.88,856.334 1063.6,835.834 1054.92,824.257C1042.87,808.188 1018.28,804.913 1004.11,790.744C996.651,783.287 984.733,776.491 977.382,769.14C963.511,755.269 951.532,753.039 934.921,747.502C914.278,740.621 890.537,725.82 876.544,711.827C872.243,707.527 873.513,685.247 875.463,679.396C876.067,677.586 880.839,669.637 878.706,667.504C875.309,664.107 867.901,659.952 865.734,653.451C861.397,640.441 876.285,622.662 870.058,610.209C862.022,594.137 855.008,586.511 844.113,575.615C840.186,571.688 828.881,579.843 823.573,574.534C803.98,554.942 752.079,551.851 725.817,564.983C709.698,573.042 699.549,568.832 684.117,584.264C680.924,587.457 672.872,577.398 670.064,576.696C660.2,574.23 650.273,573.453 639.794,573.453C621.843,573.453 604.129,585.995 584.661,582.102C562.631,577.696 538.105,549.023 526.284,531.292C521.333,523.865 523.596,513.747 518.717,506.428C514.644,500.319 508.472,498.088 504.663,492.375C498.395,482.972 484.673,475.646 480.88,464.267C477.773,454.944 475.228,445.791 468.186,438.75C464.825,435.389 407.024,414.523 404.992,406.228C402.742,397.039 419.767,385.042 432.322,379.85Z" style="fill:#a76565;"/>
            <path d="M122.939,946.214C122.164,914.15 132.813,885.622 153.847,867.75C161.431,861.307 170.895,858.802 169.989,852.357C169.412,848.253 162.67,849.05 165.164,841.863C170.009,827.896 188.244,821.532 192.742,812.536C194.773,808.474 189.814,808.47 191.514,804.972C200.895,785.667 205.507,778.978 219.203,767.953C223.46,764.527 224.863,763.126 220.499,756.224C217.401,751.324 235.14,734.193 245.421,723.912C247.174,722.159 241.537,717.932 240.262,715.381C236.491,707.839 260.829,688.226 266.612,682.444C269.468,679.587 260.586,672.465 260.024,671.903C251.334,663.213 233.125,647.127 216.547,641.601C202.257,636.838 186.244,619.203 175.704,608.663C155.77,588.729 115.986,572.66 95.335,552.01C85.074,541.749 73.75,537.012 65.033,528.295C62.095,525.357 39.569,529.156 45.27,517.754C53.042,502.211 62.062,500.962 72.938,490.087C77.439,485.585 93.817,488.97 99.288,483.499C109.558,473.229 129.916,465.55 146.718,457.149C209.55,425.733 268.46,419.534 339.365,405.352C349.356,403.354 361.669,401.631 373.767,400.562C386.578,399.431 394.184,397.057 403.505,397.848C414.127,392.845 415.675,382.034 427.344,383.469C436.7,384.62 449.047,415.725 458.12,424.798C467.812,434.49 481.774,436.594 492.376,447.195C505.053,459.873 514.339,475.746 525.313,486.721C533.726,495.133 538.128,514.867 550.346,520.976C562.221,526.913 586.572,533.933 601.729,528.881C606.202,527.39 620.104,523.576 625.444,526.246C640.615,533.831 655.672,547.251 666.287,557.866C673.283,564.862 689.767,565.536 695.273,571.042C703.046,578.815 677.718,591.677 671.557,594.757C660.315,600.378 654.994,613.579 645.207,618.472C631.945,625.103 599.127,638.267 618.857,657.997C624.268,663.409 636.79,661.438 642.572,667.22C656.699,681.347 670.409,701.645 686.05,717.285C693.942,725.178 714.403,721.581 724.258,726.508C730.236,729.497 770.107,733.36 775.641,727.826C785.55,717.916 814.622,718.875 828.341,712.015C839.792,706.29 870.235,674.992 881.042,680.395C894.249,686.999 885.507,700.67 892.899,708.063C901.49,716.653 927.404,712.798 939.012,718.603C956.886,727.54 963.029,754.985 982.49,764.716C991.274,769.108 1006.64,760.324 1015.43,764.716C1022.78,768.394 1027.49,776.014 1033.87,779.209C1043,783.772 1061.8,774.195 1069.45,781.844C1078.36,790.753 1050.73,809.244 1058.91,817.416C1065.53,824.04 1098.91,830.242 1103.7,839.814C1109.94,852.289 1108.36,868.189 1116.88,876.704C1123.48,883.305 1152.53,923.646 1160.42,931.54C1164.6,935.72 1178.19,930.87 1182.82,935.492C1187.03,939.701 1186.65,949.867 1192.04,955.255C1194.79,958.003 1210.87,951.661 1214.94,953.698C1222.05,957.251 1253.01,954.863 1260.55,953.937C1267.43,953.093 1270.33,959.976 1268.4,961.966C1253.43,977.424 1238.02,973.784 1228.15,974.241C1193.81,975.832 1180.32,998.801 1153.83,985.558C1146.06,981.669 1136.42,999.763 1127.48,990.828C1113.94,977.287 1162.13,964.87 1148.56,951.302C1145.08,947.823 1136.44,949.716 1132.75,946.032C1102.44,915.725 1022.38,883.659 991.713,852.989C985.753,847.029 979.382,841.503 975.903,834.544C973.546,829.83 970.731,825.206 974.457,821.479C976.113,819.824 976.077,815.696 974.786,814.404C969.917,809.535 964.267,812.22 956.14,809.511C948.258,806.884 937.493,792.182 932.425,787.114C918.281,772.97 890.059,764.579 870.502,751.541C847.758,736.378 787.966,758.035 767.736,762.081C705.075,774.613 610.345,773.331 568.791,731.778C557.642,720.629 547.26,758.805 545.076,762.081C537.452,773.517 513.516,776.543 502.916,781.844C496.999,784.802 490.781,778.168 485.788,783.161C476.383,792.566 480.897,818.921 467.343,827.956C453.655,837.082 439.663,839.162 427.818,845.084C423.404,847.291 418.708,841.075 413.325,843.767C403.751,848.553 406.174,871.057 394.88,876.704C392.102,878.093 387.853,873.191 385.657,875.387C380.371,880.673 378.362,890.587 373.8,895.15C370.061,898.888 363.938,889.201 359.307,893.832C346.984,906.155 346.481,945.481 333.138,958.824C322.437,969.525 297.679,956.075 290.977,962.777C284.996,968.758 269.815,958.206 260.675,962.777C257.685,964.272 243.995,953.809 242.048,955.755C230.887,966.916 178.325,962.849 169.204,953.728C166.45,950.975 157.929,955.413 156.029,956.363C149.751,959.502 142.164,960.707 135.837,959.72C128.233,958.533 122.448,954.181 122.939,946.214ZM151.49,492.642C149.994,494.137 145.868,499.26 148.297,501.689C150.82,504.212 155.734,500.099 157.876,499.028C166.32,494.806 174.609,495.51 183.953,493.174C184.746,492.976 190.482,491.719 191.404,492.642C193.016,494.253 193.353,497.341 195.662,498.496C205.985,503.657 209.889,480.33 221.739,486.255C235.741,493.256 244.8,484.245 256.331,480.401C260.531,479.001 263.23,472.556 268.039,471.354C276.854,469.15 286.001,465.666 295.181,463.371C310.135,459.633 316.589,459.346 331.313,454.438C335.278,453.116 340.084,456.244 343.553,457.631C350.153,460.271 357.211,461.357 364.308,461.357C373.229,461.357 385.739,459.63 394.111,462.421C395.875,463.009 402.7,463.981 404.755,462.953C407.117,461.772 407.812,457.768 409.544,456.035C413.537,452.043 418.797,450.078 423.914,447.52C432.075,443.439 438.257,452.829 443.605,455.503C445.063,456.232 448.075,459.654 449.991,458.696C453.34,457.021 454.658,451.943 453.184,447.52C448.341,432.992 430.069,440.19 418.876,432.728C411.065,427.521 400.995,422.497 390.736,423.592C374.048,425.373 355.395,431.357 348.336,432.263C332.004,434.359 323.667,432.393 310.854,433.828C291.019,436.051 281.647,448.112 242.079,453.765C217.016,457.345 201.394,461.351 180.055,472.043C168.802,477.681 158.809,485.322 151.49,492.642ZM179.188,530.512C178.77,534.377 212.602,541.923 225.532,544.74C243.136,548.575 251.734,559.676 280.724,565.82C298.201,569.524 310.587,585.57 320.728,588.95C334.598,593.573 340.866,606.844 353.172,615.048C359.416,619.211 367.513,618.685 374.378,622.117C385.036,627.446 390.184,640.901 399.118,646.857C400.608,647.85 406.172,657.474 408.837,654.809C411.069,652.577 414.029,641.846 413.464,640.151C409.55,628.409 386.767,619.485 377.028,609.747C364.939,597.657 352.092,589.755 336.719,582.068C317.516,572.466 312.43,560.068 299.966,547.604C293.871,541.509 268.134,542.355 259.902,540.664C236.535,535.865 180.056,522.485 179.188,530.512ZM1042,949.235C1042,949.235 1036.48,950.904 1036.48,952.153C1036.48,954.754 1028.43,954.232 1025.39,954.232C1013.3,954.232 1002.93,950.562 992.814,955.618C990.932,956.559 992.166,964.026 992.814,965.322C995.201,970.096 990.955,982.54 986.576,984.729C980.211,987.911 968.922,969.155 964.396,964.629C957.055,957.288 940.515,952.909 935.286,942.449C932.223,936.323 936.966,924.913 935.286,918.19C933.805,912.268 922.411,901.261 929.047,894.625C936.526,887.146 952.018,893.634 959.544,897.397C962.709,898.979 962.814,905.187 966.476,906.407C976.631,909.792 987.077,917.623 997.666,920.27C1010.44,923.463 1025.75,934.658 1037.17,940.37C1040.44,942.003 1039.58,947.261 1042,949.235ZM759.121,860.808C761.424,859.733 766.443,859.694 771.715,859.59C778.277,859.46 782.321,863.458 787.783,867.1C796.62,872.991 796.378,882.089 801.765,890.17C802.868,891.825 802.825,896.992 804.561,897.859C807.798,899.478 819.331,891.658 822.038,894.364C829.523,901.849 833.688,911.258 847.205,914.637C856.125,916.867 870.358,916.819 876.566,923.026C879.568,926.028 878.356,932.282 879.362,936.309C881.097,943.25 884.594,948.411 889.149,954.485C898.538,967.002 911.565,962.528 923.48,971.464C935.727,980.649 959.596,974.882 970.273,985.558C972.787,988.073 976.01,1000.79 973.069,1003.73C970.467,1006.34 958.095,1001.56 955.592,1000.94C946.89,998.762 937.048,1001.02 928.328,998.841C920.418,996.863 911.201,988.267 902.462,990.452C891.252,993.255 876.224,1010.51 862.66,1007.12C842.764,1002.14 817.131,1000.1 796.172,1002.72C787.123,1003.85 777.52,1003.47 768.908,1006.92C764.934,1008.5 757.991,1012.6 753.528,1011.11C747.262,1009.02 746.349,998.304 738.848,996.429C724.327,992.799 712.419,1002.35 698.301,992.934C689.444,987.029 698.345,961.083 692.709,951.688C690.272,947.627 684.27,945.321 681.524,941.202C672.654,927.898 663.209,916.317 653.561,903.452C650.642,899.56 644.464,897.136 643.074,892.966C641.222,887.41 650.602,875.801 655.658,874.79C665.397,872.842 675.427,876.761 684.32,878.984C697.113,882.183 713.444,879.776 726.964,882.48C734.995,884.086 739.792,876.56 743.741,871.295C745.15,869.416 754.618,862.912 759.121,860.808Z" style="fill:#363a40;"/>
            <path d="M782.64,572.223C820.413,574.706 833.052,590.389 845.522,595.601C855.593,599.811 859.912,606.791 854.146,615.785C846.762,627.303 851.637,647.85 841.339,669.59C830.914,691.598 809.797,707.303 787.507,712.876C759.164,719.962 723.931,712.891 703.063,697.415C684.054,683.317 676.486,662.276 664.133,655.318C659.525,652.722 642.245,649.511 643.546,641.662C644.702,634.687 657.597,629.394 668.559,625.63C680.014,621.698 691.613,600.413 709.114,588.584C725.311,577.636 747.751,569.93 782.64,572.223ZM764.689,601.233C763.23,602.687 762.054,604.338 761.271,606.185C757.827,614.305 755.996,624.933 762.389,632.209C766.937,637.385 776.521,635.268 781.005,635.908C787.494,636.835 796.228,636.881 802.941,637.43C817.814,638.647 823.306,627.585 823.484,620.435C823.835,606.394 810.199,595.794 790.533,593.354C789.736,593.255 788.905,593.192 788.05,593.163C785.608,592.801 782.743,592.759 782.103,592.887C776.594,593.989 767.898,595.681 764.689,601.233Z" style="fill:#363a40;"/>
        </g>
    </g>
</svg>
